<?xml version="1.0" encoding="UTF-8"?>
<svg id="Layer_2" data-name="Layer 2" xmlns="http://www.w3.org/2000/svg" viewBox="0 0 172 128">
  <defs>
    <style>
      .cls-1 {
        font-family: TAEBAEK-milkyway-KSCpc-EUC-H, 'TAEBAEK milkyway';
        font-size: 30px;
        letter-spacing: -.07em;
      }

      .cls-1, .cls-2 {
        fill: #304865;
      }

      .cls-2 {
        stroke-width: 0px;
      }
    </style>
  </defs>
  <text class="cls-1" transform="translate(47.48 73.69)"><tspan x="0" y="0">IDASU</tspan></text>
  <path class="cls-2" d="m86,12.04c47.14,0,85.5,23.33,85.5,52s-38.36,52-85.5,52S.5,92.71.5,64.04,38.86,12.04,86,12.04m0-.5C38.5,11.54,0,35.04,0,64.04s38.5,52.5,86,52.5,86-23.51,86-52.5S133.5,11.54,86,11.54h0Z"/>
  <path class="cls-2" d="m53.16.04v.5c23.49,0,50.95,10.44,73.47,27.94,23.63,18.36,38.2,41.41,38.97,61.66.41,10.69-3.22,19.82-10.49,26.42-7.87,7.14-19.49,10.92-33.59,10.92-23.49,0-50.95-10.44-73.47-27.94C24.42,81.16,9.85,58.11,9.08,37.87c-.41-10.69,3.22-19.82,10.49-26.42C27.45,4.31,39.06.54,53.16.54V.04m0,0c-13.73,0-25.69,3.58-33.92,11.04C-2.63,30.92,10.13,70.69,47.74,99.92c23.46,18.23,51.03,28.04,73.78,28.04,13.73,0,25.69-3.58,33.92-11.04,21.87-19.84,9.11-59.61-28.51-88.84C103.48,9.86,75.9.04,53.16.04h0Z"/>
  <circle class="cls-2" cx="15.84" cy="14.78" r="3.25"/>
  <circle class="cls-2" cx="161.09" cy="109.51" r="3.25"/>
</svg>