<svg width="24" height="24" viewBox="0 0 24 24" fill="none" xmlns="http://www.w3.org/2000/svg">
<path d="M4.93501 1.23154e-05C4.28653 -0.00143799 3.64415 0.12522 3.04475 0.372713C2.44536 0.620206 1.90075 0.983659 1.4422 1.4422C0.983659 1.90075 0.620206 2.44536 0.372713 3.04475C0.12522 3.64415 -0.00143799 4.28653 1.23154e-05 4.93501V19.065C-0.00143799 19.7135 0.12522 20.3559 0.372713 20.9552C0.620206 21.5546 0.983659 22.0992 1.4422 22.5578C1.90075 23.0163 2.44536 23.3798 3.04475 23.6273C3.64415 23.8748 4.28653 24.0014 4.93501 24H19.065C19.7135 24.0014 20.3559 23.8748 20.9552 23.6273C21.5546 23.3798 22.0992 23.0163 22.5578 22.5578C23.0163 22.0992 23.3798 21.5546 23.6273 20.9552C23.8748 20.3559 24.0014 19.7135 24 19.065V4.93501C24.0014 4.28653 23.8748 3.64415 23.6273 3.04475C23.3798 2.44536 23.0163 1.90075 22.5578 1.4422C22.0992 0.983659 21.5546 0.620206 20.9552 0.372713C20.3559 0.12522 19.7135 -0.00143799 19.065 1.23154e-05H4.93501ZM12.745 4.54701C14.926 4.54701 16.803 5.22301 18.144 6.39401C18.8122 6.97191 19.3474 7.68768 19.7127 8.49211C20.078 9.29654 20.2647 10.1705 20.26 11.054C20.265 12.908 19.38 14.53 18.003 15.617C16.628 16.709 14.778 17.314 12.745 17.314C10.431 17.314 8.285 16.472 8.285 16.472V19.19C8.682 19.306 9.333 19.555 8.92 19.969H5.79001C5.38001 19.559 5.98001 19.319 6.43401 19.19V7.666C5.38101 8.476 4.84101 9.176 4.56601 9.697C4.88601 10.717 4.28201 10.666 4.28201 10.666L3.19201 8.936C3.19201 8.936 7.06001 4.54701 12.745 4.54701ZM12.555 5.51801C11.132 5.51501 9.371 5.99101 8.285 6.76201V15.408C9.273 15.895 10.769 16.24 12.545 16.24H12.555C14.151 16.24 15.535 15.647 16.485 14.707C17.437 13.759 17.971 12.524 17.977 11.024C17.972 9.484 17.473 8.16 16.557 7.16401C15.639 6.17201 14.283 5.51901 12.555 5.51801Z" fill="#4B709E"/>
<path d="M4.93501 1.23154e-05C4.28653 -0.00143799 3.64415 0.12522 3.04475 0.372713C2.44536 0.620206 1.90075 0.983659 1.4422 1.4422C0.983659 1.90075 0.620206 2.44536 0.372713 3.04475C0.12522 3.64415 -0.00143799 4.28653 1.23154e-05 4.93501V19.065C-0.00143799 19.7135 0.12522 20.3559 0.372713 20.9552C0.620206 21.5546 0.983659 22.0992 1.4422 22.5578C1.90075 23.0163 2.44536 23.3798 3.04475 23.6273C3.64415 23.8748 4.28653 24.0014 4.93501 24H19.065C19.7135 24.0014 20.3559 23.8748 20.9552 23.6273C21.5546 23.3798 22.0992 23.0163 22.5578 22.5578C23.0163 22.0992 23.3798 21.5546 23.6273 20.9552C23.8748 20.3559 24.0014 19.7135 24 19.065V4.93501C24.0014 4.28653 23.8748 3.64415 23.6273 3.04475C23.3798 2.44536 23.0163 1.90075 22.5578 1.4422C22.0992 0.983659 21.5546 0.620206 20.9552 0.372713C20.3559 0.12522 19.7135 -0.00143799 19.065 1.23154e-05H4.93501ZM12.745 4.54701C14.926 4.54701 16.803 5.22301 18.144 6.39401C18.8122 6.97191 19.3474 7.68768 19.7127 8.49211C20.078 9.29654 20.2647 10.1705 20.26 11.054C20.265 12.908 19.38 14.53 18.003 15.617C16.628 16.709 14.778 17.314 12.745 17.314C10.431 17.314 8.285 16.472 8.285 16.472V19.19C8.682 19.306 9.333 19.555 8.92 19.969H5.79001C5.38001 19.559 5.98001 19.319 6.43401 19.19V7.666C5.38101 8.476 4.84101 9.176 4.56601 9.697C4.88601 10.717 4.28201 10.666 4.28201 10.666L3.19201 8.936C3.19201 8.936 7.06001 4.54701 12.745 4.54701ZM12.555 5.51801C11.132 5.51501 9.371 5.99101 8.285 6.76201V15.408C9.273 15.895 10.769 16.24 12.545 16.24H12.555C14.151 16.24 15.535 15.647 16.485 14.707C17.437 13.759 17.971 12.524 17.977 11.024C17.972 9.484 17.473 8.16 16.557 7.16401C15.639 6.17201 14.283 5.51901 12.555 5.51801Z" fill="black" fill-opacity="0.2"/>
<path d="M4.93501 1.23154e-05C4.28653 -0.00143799 3.64415 0.12522 3.04475 0.372713C2.44536 0.620206 1.90075 0.983659 1.4422 1.4422C0.983659 1.90075 0.620206 2.44536 0.372713 3.04475C0.12522 3.64415 -0.00143799 4.28653 1.23154e-05 4.93501V19.065C-0.00143799 19.7135 0.12522 20.3559 0.372713 20.9552C0.620206 21.5546 0.983659 22.0992 1.4422 22.5578C1.90075 23.0163 2.44536 23.3798 3.04475 23.6273C3.64415 23.8748 4.28653 24.0014 4.93501 24H19.065C19.7135 24.0014 20.3559 23.8748 20.9552 23.6273C21.5546 23.3798 22.0992 23.0163 22.5578 22.5578C23.0163 22.0992 23.3798 21.5546 23.6273 20.9552C23.8748 20.3559 24.0014 19.7135 24 19.065V4.93501C24.0014 4.28653 23.8748 3.64415 23.6273 3.04475C23.3798 2.44536 23.0163 1.90075 22.5578 1.4422C22.0992 0.983659 21.5546 0.620206 20.9552 0.372713C20.3559 0.12522 19.7135 -0.00143799 19.065 1.23154e-05H4.93501ZM12.745 4.54701C14.926 4.54701 16.803 5.22301 18.144 6.39401C18.8122 6.97191 19.3474 7.68768 19.7127 8.49211C20.078 9.29654 20.2647 10.1705 20.26 11.054C20.265 12.908 19.38 14.53 18.003 15.617C16.628 16.709 14.778 17.314 12.745 17.314C10.431 17.314 8.285 16.472 8.285 16.472V19.19C8.682 19.306 9.333 19.555 8.92 19.969H5.79001C5.38001 19.559 5.98001 19.319 6.43401 19.19V7.666C5.38101 8.476 4.84101 9.176 4.56601 9.697C4.88601 10.717 4.28201 10.666 4.28201 10.666L3.19201 8.936C3.19201 8.936 7.06001 4.54701 12.745 4.54701ZM12.555 5.51801C11.132 5.51501 9.371 5.99101 8.285 6.76201V15.408C9.273 15.895 10.769 16.24 12.545 16.24H12.555C14.151 16.24 15.535 15.647 16.485 14.707C17.437 13.759 17.971 12.524 17.977 11.024C17.972 9.484 17.473 8.16 16.557 7.16401C15.639 6.17201 14.283 5.51901 12.555 5.51801Z" fill="black" fill-opacity="0.2"/>
</svg>
