<svg width="22" height="20" viewBox="0 0 22 20" fill="none" xmlns="http://www.w3.org/2000/svg">
<path d="M17.8108 0.531462L18.9995 2.76154L19.0353 2.82869L19.1025 2.86451L21.3317 4.05407L19.1025 5.24361L19.0353 5.27943L18.9995 5.34658L17.8108 7.57666L16.622 5.34657L16.5862 5.27943L16.5191 5.24361L14.2899 4.05407L16.5191 2.86451L16.5862 2.82869L16.622 2.76155L17.8108 0.531462ZM8.19296 3.87273L10.822 8.80488L10.8578 8.87202L10.925 8.90784L15.8549 11.5385L10.925 14.1691L10.8578 14.2049L10.822 14.272L8.19296 19.2042L5.56384 14.272L5.52805 14.2049L5.46092 14.1691L0.531037 11.5385L5.46092 8.90784L5.52805 8.87202L5.56384 8.80488L8.19296 3.87273Z" stroke="#304865" stroke-width="0.5"/>
</svg>
