<svg width="24" height="22" viewBox="0 0 24 22" fill="none" xmlns="http://www.w3.org/2000/svg">
<path d="M16.6371 2.88807C14.7444 2.88807 13.2015 4.47259 13.1678 6.44502L13.1342 8.41316C13.1271 8.82717 12.8 9.15681 12.4036 9.14944C12.3753 9.14894 12.3472 9.14669 12.3193 9.14269L10.4518 8.87666C7.99476 8.52678 5.63981 7.34569 3.38066 5.37981C2.66517 9.51544 4.06181 12.3813 7.42812 14.5915L9.51843 15.9639C9.8541 16.1843 9.95514 16.6471 9.74411 16.9976C9.69575 17.078 9.63323 17.148 9.55986 17.204L7.65541 18.6571C8.78774 18.7314 9.86418 18.6796 10.7563 18.4936C16.401 17.3172 20.1546 12.8809 20.1546 5.56346C20.1546 4.96605 18.9434 2.88807 16.6371 2.88807ZM10.7751 6.40045C10.8321 3.07024 13.4347 0.388916 16.6371 0.388916C18.2683 0.388916 19.744 1.08465 20.8069 2.20749C21.6581 2.2008 22.3822 2.42555 24 1.40061C23.6001 3.45038 23.4016 4.34004 22.5477 5.56346C22.5477 15.1122 16.9275 19.756 11.2246 20.9444C7.31479 21.7593 1.62864 20.4214 0 18.6435C0.829702 18.5769 4.20453 18.1979 6.15446 16.7072C4.50445 15.5695 -2.06273 11.5328 2.25234 0.684278C4.27861 3.15426 6.33277 4.83554 8.41483 5.72813C9.79969 6.32182 10.1399 6.30997 10.7751 6.40045Z" fill="#304865"/>
</svg>
