<svg width="944" height="71" viewBox="0 0 944 71" fill="none" xmlns="http://www.w3.org/2000/svg">
<path d="M16.3286 25.9773C9.23141 14.6863 17.3467 0 30.6829 0H128.66C140.696 0 151.887 6.1841 158.292 16.374C165.449 27.7601 165.449 42.2399 158.292 53.626C151.887 63.8159 140.696 70 128.66 70H30.6829C17.3467 70 9.23141 55.3137 16.3286 44.0227C19.7955 38.5071 19.7955 31.4929 16.3286 25.9773Z" fill="#98ABC2"/>
<path d="M56.89 35.92H70.298V37.616H56.89V35.92ZM62.698 36.992H64.842V40.112H62.698V36.992ZM58.538 29.232H68.602V34.736H58.538V29.232ZM66.506 30.896H60.618V33.072H66.506V30.896ZM58.442 41.472H68.826V43.168H58.442V41.472ZM58.442 38.864H60.554V42.032H58.442V38.864ZM76.3768 29.584C78.7128 29.584 80.4568 31.104 80.4568 33.232C80.4568 35.376 78.7128 36.896 76.3768 36.896C74.0568 36.896 72.2808 35.376 72.2808 33.232C72.2808 31.104 74.0568 29.584 76.3768 29.584ZM76.3768 31.408C75.2408 31.408 74.3768 32.08 74.3768 33.232C74.3768 34.4 75.2408 35.072 76.3768 35.072C77.5128 35.072 78.3768 34.4 78.3768 33.232C78.3768 32.08 77.5128 31.408 76.3768 31.408ZM81.8488 28.592H83.9768V43.456H81.8488V28.592ZM71.9288 40.448L71.6728 38.736C74.2808 38.736 77.9128 38.704 81.0328 38.24L81.1928 39.776C77.9768 40.416 74.4888 40.448 71.9288 40.448ZM97.9685 31.92H100.785V33.632H97.9685V31.92ZM100.225 28.608H102.353V36.704H100.225V28.608ZM92.5125 37.312H94.6245V38.656H100.241V37.312H102.353V43.264H92.5125V37.312ZM94.6245 40.304V41.568H100.241V40.304H94.6245ZM93.3765 29.744H95.1045V30.688C95.1045 33.472 93.7925 36.048 90.9445 36.992L89.8725 35.296C92.3205 34.496 93.3765 32.56 93.3765 30.688V29.744ZM93.8245 29.744H95.5365V30.688C95.5365 32.416 96.5445 34.256 98.8805 35.04L97.8405 36.688C95.0885 35.776 93.8245 33.328 93.8245 30.688V29.744ZM90.4485 29.28H98.4165V30.976H90.4485V29.28ZM110.255 29.04H112.127V29.728C112.127 32.576 109.887 34.992 105.999 35.568L105.167 33.856C108.575 33.408 110.255 31.472 110.255 29.728V29.04ZM110.655 29.04H112.511V29.728C112.511 31.456 114.207 33.408 117.599 33.856L116.783 35.568C112.895 34.992 110.655 32.576 110.655 29.728V29.04ZM110.271 38H112.383V43.424H110.271V38ZM104.687 36.656H118.079V38.384H104.687V36.656Z" fill="white"/>
<path d="M170.329 25.9773C163.231 14.6863 171.347 0 184.683 0H282.66C294.696 0 305.887 6.1841 312.292 16.374C319.449 27.7601 319.449 42.2399 312.292 53.626C305.887 63.8159 294.696 70 282.66 70H184.683C171.347 70 163.231 55.3137 170.329 44.0227C173.796 38.5071 173.796 31.4929 170.329 25.9773Z" fill="#F0F0F0"/>
<path d="M222.162 28.608H224.29V39.52H222.162V28.608ZM217.554 29.712H219.81C219.81 33.728 217.266 36.656 212.962 37.984L212.082 36.304C215.522 35.216 217.554 33.184 217.554 30.704V29.712ZM212.866 29.712H218.882V31.424H212.866V29.712ZM218.994 31.44H222.466V33.152H218.994V31.44ZM218.85 34.784H222.354V36.48H218.85V34.784ZM214.578 41.472H224.658V43.168H214.578V41.472ZM214.578 38.464H216.722V42.56H214.578V38.464ZM230.033 30.08H231.761V31.024C231.761 33.808 230.449 36.384 227.601 37.312L226.529 35.632C228.977 34.832 230.033 32.88 230.033 31.024V30.08ZM230.481 30.08H232.193V31.024C232.193 32.752 233.201 34.576 235.537 35.36L234.497 37.024C231.745 36.112 230.481 33.648 230.481 31.024V30.08ZM234.673 32.144H237.489V33.872H234.673V32.144ZM227.105 29.424H235.073V31.104H227.105V29.424ZM228.913 38.096H239.009V43.424H236.881V39.792H228.913V38.096ZM236.881 28.608H239.009V37.424H236.881V28.608ZM248.201 29.408H249.945V30.72C249.945 33.664 248.665 36.256 245.849 37.232L244.713 35.552C247.193 34.72 248.201 32.736 248.201 30.72V29.408ZM248.633 29.408H250.361V30.928C250.361 32.704 251.353 34.432 253.673 35.152L252.569 36.8C249.897 35.904 248.633 33.6 248.633 30.928V29.408ZM254.489 28.608H256.617V37.36H254.489V28.608ZM256.025 32.032H258.585V33.792H256.025V32.032ZM251.785 37.696C254.857 37.696 256.793 38.768 256.793 40.56C256.793 42.368 254.857 43.424 251.785 43.424C248.697 43.424 246.761 42.368 246.761 40.56C246.761 38.768 248.697 37.696 251.785 37.696ZM251.785 39.344C249.897 39.344 248.873 39.744 248.873 40.56C248.873 41.392 249.897 41.776 251.785 41.776C253.673 41.776 254.681 41.392 254.681 40.56C254.681 39.744 253.673 39.344 251.785 39.344ZM269.207 28.608H271.335V36.912H269.207V28.608ZM270.743 31.936H273.303V33.664H270.743V31.936ZM260.231 34.688H261.463C264.679 34.688 266.279 34.608 268.055 34.24L268.263 35.92C266.455 36.32 264.759 36.4 261.463 36.4H260.231V34.688ZM260.231 29.52H266.807V31.216H262.343V35.68H260.231V29.52ZM261.703 37.552H271.335V43.264H261.703V37.552ZM269.255 39.232H263.799V41.584H269.255V39.232Z" fill="#304865"/>
<path d="M325.329 25.9773C318.231 14.6863 326.347 0 339.683 0H437.66C449.696 0 460.887 6.1841 467.292 16.374C474.449 27.7601 474.449 42.2399 467.292 53.626C460.887 63.8159 449.696 70 437.66 70H339.683C326.347 70 318.231 55.3137 325.329 44.0227C328.796 38.5071 328.796 31.4929 325.329 25.9773Z" fill="#98ABC2"/>
<path d="M393.193 28.592H395.321V43.456H393.193V28.592ZM390.873 33.936H393.625V35.648H390.873V33.936ZM383.433 38.272H384.649C387.049 38.272 388.953 38.224 391.097 37.856L391.289 39.584C389.097 39.952 387.113 40.032 384.649 40.032H383.433V38.272ZM383.401 29.856H390.073V35.424H385.545V38.8H383.433V33.744H387.977V31.552H383.401V29.856ZM397.656 39.968H411.064V41.712H397.656V39.968ZM398.68 29.888H409.96V31.584H398.68V29.888ZM398.744 36.016H409.912V37.728H398.744V36.016ZM400.696 31.456H402.824V36.176H400.696V31.456ZM405.832 31.456H407.944V36.176H405.832V31.456Z" fill="white"/>
<path d="M480.329 26.9773C473.231 15.6863 481.347 1 494.683 1H592.66C604.696 1 615.887 7.1841 622.292 17.374C629.449 28.7601 629.449 43.2399 622.292 54.626C615.887 64.8159 604.696 71 592.66 71H494.683C481.347 71 473.231 56.3137 480.329 45.0227C483.796 39.5071 483.796 32.4929 480.329 26.9773Z" fill="#F0F0F0"/>
<path d="M528.634 32.776H531.482V34.472H528.634V32.776ZM526.378 30.248H528.602C528.602 34.248 526.65 36.584 521.914 37.688L521.146 36.072C525.21 35.192 526.378 33.48 526.378 31.304V30.248ZM521.962 30.248H527.914V31.88H521.962V30.248ZM526.81 32.712V34.104L521.514 34.488L521.226 32.888L526.81 32.712ZM531.162 29.608H533.29V37.08H531.162V29.608ZM523.498 37.656H533.29V41.688H525.626V43.512H523.53V40.152H531.178V39.304H523.498V37.656ZM523.53 42.616H533.594V44.264H523.53V42.616ZM545.881 29.592H548.009V44.456H545.881V29.592ZM543.561 34.936H546.313V36.648H543.561V34.936ZM536.121 39.272H537.337C539.737 39.272 541.641 39.224 543.785 38.856L543.977 40.584C541.785 40.952 539.801 41.032 537.337 41.032H536.121V39.272ZM536.089 30.856H542.761V36.424H538.233V39.8H536.121V34.744H540.665V32.552H536.089V30.856ZM564.225 29.592H566.353V44.456H564.225V29.592ZM561.905 34.936H564.657V36.648H561.905V34.936ZM554.465 39.272H555.681C558.081 39.272 559.985 39.224 562.128 38.856L562.321 40.584C560.129 40.952 558.145 41.032 555.681 41.032H554.465V39.272ZM554.433 30.856H561.105V36.424H556.577V39.8H554.465V34.744H559.009V32.552H554.433V30.856ZM568.687 40.968H582.095V42.712H568.687V40.968ZM569.711 30.888H580.991V32.584H569.711V30.888ZM569.775 37.016H580.943V38.728H569.775V37.016ZM571.727 32.456H573.855V37.176H571.727V32.456ZM576.863 32.456H578.975V37.176H576.863V32.456Z" fill="#304865"/>
<path d="M635.329 25.9773C628.231 14.6863 636.347 0 649.683 0H747.66C759.696 0 770.887 6.1841 777.292 16.374C784.449 27.7601 784.449 42.2399 777.292 53.626C770.887 63.8159 759.696 70 747.66 70H649.683C636.347 70 628.231 55.3137 635.329 44.0227C638.796 38.5071 638.796 31.4929 635.329 25.9773Z" fill="#98ABC2"/>
<path d="M668.847 29.04C671.103 29.04 672.799 30.448 672.799 32.432C672.799 34.4 671.103 35.808 668.847 35.808C666.591 35.808 664.895 34.4 664.895 32.432C664.895 30.448 666.591 29.04 668.847 29.04ZM668.847 30.768C667.759 30.768 666.943 31.376 666.943 32.432C666.943 33.488 667.759 34.096 668.847 34.096C669.935 34.096 670.735 33.488 670.735 32.432C670.735 31.376 669.935 30.768 668.847 30.768ZM674.847 28.608H676.991V36.016H674.847V28.608ZM667.103 36.624H676.991V40.688H669.215V42.48H667.135V39.152H674.879V38.272H667.103V36.624ZM667.135 41.616H677.359V43.264H667.135V41.616ZM689.662 28.592H691.79V43.456H689.662V28.592ZM687.342 33.936H690.094V35.648H687.342V33.936ZM679.902 38.272H681.118C683.518 38.272 685.422 38.224 687.566 37.856L687.758 39.584C685.566 39.952 683.582 40.032 681.118 40.032H679.902V38.272ZM679.87 29.856H686.542V35.424H682.014V38.8H679.902V33.744H684.446V31.552H679.87V29.856ZM699.613 29.456H701.469V30.528C701.469 33.744 699.181 36.592 695.341 37.344L694.429 35.584C697.773 35.008 699.613 32.656 699.613 30.528V29.456ZM700.045 29.456H701.885V30.528C701.885 32.704 703.709 35.008 707.069 35.584L706.157 37.344C702.317 36.592 700.045 33.792 700.045 30.528V29.456ZM694.125 39.888H707.533V41.616H694.125V39.888ZM710.412 36.24H720.828V37.904H710.412V36.24ZM708.844 40H722.252V41.728H708.844V40ZM710.412 29.68H720.7V31.392H712.572V36.704H710.412V29.68ZM711.916 32.944H720.364V34.592H711.916V32.944ZM730.547 34.608H732.675V36.848H730.547V34.608ZM731.587 29.2C733.731 29.2 735.283 30.432 735.283 32.224C735.283 33.984 733.731 35.216 731.587 35.216C729.443 35.216 727.891 33.984 727.891 32.224C727.891 30.432 729.443 29.2 731.587 29.2ZM731.587 30.8C730.579 30.8 729.875 31.312 729.875 32.224C729.875 33.12 730.579 33.632 731.587 33.632C732.611 33.632 733.299 33.12 733.299 32.224C733.299 31.312 732.611 30.8 731.587 30.8ZM736.803 28.624H738.931V39.92H736.803V28.624ZM738.179 33.264H740.787V35.008H738.179V33.264ZM729.043 41.456H739.427V43.168H729.043V41.456ZM729.043 38.944H731.187V42.192H729.043V38.944ZM727.363 38L727.123 36.304C729.635 36.304 733.107 36.288 736.019 35.872L736.163 37.392C733.171 37.952 729.811 38 727.363 38ZM745.33 29.376H747.106V30.704C747.106 33.68 745.778 36.288 742.866 37.264L741.762 35.552C744.29 34.736 745.33 32.736 745.33 30.704V29.376ZM745.778 29.376H747.49V30.608C747.49 32.576 748.45 34.4 750.802 35.152L749.698 36.816C746.962 35.872 745.778 33.488 745.778 30.608V29.376ZM752.162 28.608H754.29V37.28H752.162V28.608ZM749.266 37.664C752.402 37.664 754.338 38.736 754.338 40.544C754.338 42.368 752.402 43.424 749.266 43.424C746.13 43.424 744.194 42.368 744.194 40.544C744.194 38.736 746.13 37.664 749.266 37.664ZM749.266 39.312C747.346 39.312 746.322 39.712 746.322 40.544C746.322 41.376 747.346 41.792 749.266 41.792C751.202 41.792 752.226 41.376 752.226 40.544C752.226 39.712 751.202 39.312 749.266 39.312ZM749.458 31.296H752.466V33.024H749.458V31.296Z" fill="white"/>
<path d="M790.329 25.9773C783.231 14.6863 791.347 0 804.683 0H902.66C914.696 0 925.887 6.1841 932.292 16.374C939.449 27.7601 939.449 42.2399 932.292 53.626C925.887 63.8159 914.696 70 902.66 70H804.683C791.347 70 783.231 55.3137 790.329 44.0227C793.796 38.5071 793.796 31.4929 790.329 25.9773Z" fill="#F0F0F0"/>
<path d="M819.863 29.968H828.039V31.664H819.863V29.968ZM819.703 40.048L819.479 38.304C822.055 38.304 825.543 38.272 828.471 37.904L828.583 39.456C825.591 39.984 822.231 40.048 819.703 40.048ZM821.127 31.296H823.191V38.768H821.127V31.296ZM824.711 31.296H826.775V38.768H824.711V31.296ZM829.143 28.608H831.287V43.424H829.143V28.608ZM830.807 34.224H833.431V35.968H830.807V34.224ZM834.406 40H847.814V41.728H834.406V40ZM840.022 31.744H841.91V32.064C841.91 35.024 839.67 37.472 835.638 38.08L834.838 36.368C838.39 35.888 840.022 33.888 840.022 32.064V31.744ZM840.31 31.744H842.182V32.064C842.182 33.888 843.814 35.888 847.366 36.368L846.566 38.08C842.534 37.472 840.31 35.024 840.31 32.064V31.744ZM835.542 30.64H846.662V32.352H835.542V30.64ZM840.038 28.832H842.166V31.344H840.038V28.832ZM849.109 36.192H862.517V37.872H849.109V36.192ZM854.917 37.088H857.061V40.208H854.917V37.088ZM850.661 41.472H861.045V43.168H850.661V41.472ZM850.661 39.088H852.773V42.192H850.661V39.088ZM850.821 29.072H852.917V30.592H858.693V29.072H860.805V35.168H850.821V29.072ZM852.917 32.192V33.504H858.693V32.192H852.917ZM874.036 28.592H876.164V43.456H874.036V28.592ZM864.628 38.272H865.94C868.564 38.272 870.66 38.176 873.012 37.776L873.22 39.488C870.82 39.92 868.644 40 865.94 40H864.628V38.272ZM864.612 29.856H871.604V35.584H866.788V38.912H864.628V33.904H869.428V31.552H864.612V29.856ZM885.547 34.608H887.675V36.848H885.547V34.608ZM886.587 29.2C888.731 29.2 890.283 30.432 890.283 32.224C890.283 33.984 888.731 35.216 886.587 35.216C884.443 35.216 882.891 33.984 882.891 32.224C882.891 30.432 884.443 29.2 886.587 29.2ZM886.587 30.8C885.579 30.8 884.875 31.312 884.875 32.224C884.875 33.12 885.579 33.632 886.587 33.632C887.611 33.632 888.299 33.12 888.299 32.224C888.299 31.312 887.611 30.8 886.587 30.8ZM891.803 28.624H893.931V39.92H891.803V28.624ZM893.179 33.264H895.787V35.008H893.179V33.264ZM884.043 41.456H894.427V43.168H884.043V41.456ZM884.043 38.944H886.187V42.192H884.043V38.944ZM882.363 38L882.123 36.304C884.635 36.304 888.107 36.288 891.019 35.872L891.163 37.392C888.171 37.952 884.811 38 882.363 38ZM900.33 29.376H902.106V30.704C902.106 33.68 900.778 36.288 897.866 37.264L896.762 35.552C899.29 34.736 900.33 32.736 900.33 30.704V29.376ZM900.778 29.376H902.49V30.608C902.49 32.576 903.45 34.4 905.802 35.152L904.698 36.816C901.962 35.872 900.778 33.488 900.778 30.608V29.376ZM907.162 28.608H909.29V37.28H907.162V28.608ZM904.266 37.664C907.402 37.664 909.338 38.736 909.338 40.544C909.338 42.368 907.402 43.424 904.266 43.424C901.13 43.424 899.194 42.368 899.194 40.544C899.194 38.736 901.13 37.664 904.266 37.664ZM904.266 39.312C902.346 39.312 901.322 39.712 901.322 40.544C901.322 41.376 902.346 41.792 904.266 41.792C906.202 41.792 907.226 41.376 907.226 40.544C907.226 39.712 906.202 39.312 904.266 39.312ZM904.458 31.296H907.466V33.024H904.458V31.296Z" fill="#304865"/>
</svg>
