<svg width="333" height="116" viewBox="0 0 333 116" fill="none" xmlns="http://www.w3.org/2000/svg">
<path d="M10.8003 20.4848C5.89548 11.1819 12.6409 0 23.1576 0H79.4772C89.4947 0 98.6889 5.54631 103.361 14.4077C107.516 22.2884 107.516 31.7116 103.361 39.5923C98.6889 48.4537 89.4947 54 79.4772 54H23.1576C12.6409 54 5.89548 42.8181 10.8003 33.5152C12.95 29.4377 12.95 24.5623 10.8003 20.4848Z" fill="#98ABC2"/>
<path d="M10.8003 20.4848C5.89548 11.1819 12.6409 0 23.1576 0H79.4772C89.4947 0 98.6889 5.54631 103.361 14.4077C107.516 22.2884 107.516 31.7116 103.361 39.5923C98.6889 48.4537 89.4947 54 79.4772 54H23.1576C12.6409 54 5.89548 42.8181 10.8003 33.5152C12.95 29.4377 12.95 24.5623 10.8003 20.4848Z" fill="#98ABC2"/>
<path d="M34.5425 26.44H44.5985V27.712H34.5425V26.44ZM38.8985 27.244H40.5065V29.584H38.8985V27.244ZM35.7785 21.424H43.3265V25.552H35.7785V21.424ZM41.7545 22.672H37.3385V24.304H41.7545V22.672ZM35.7065 30.604H43.4945V31.876H35.7065V30.604ZM35.7065 28.648H37.2905V31.024H35.7065V28.648ZM49.1576 21.688C50.9096 21.688 52.2176 22.828 52.2176 24.424C52.2176 26.032 50.9096 27.172 49.1576 27.172C47.4176 27.172 46.0856 26.032 46.0856 24.424C46.0856 22.828 47.4176 21.688 49.1576 21.688ZM49.1576 23.056C48.3056 23.056 47.6576 23.56 47.6576 24.424C47.6576 25.3 48.3056 25.804 49.1576 25.804C50.0096 25.804 50.6576 25.3 50.6576 24.424C50.6576 23.56 50.0096 23.056 49.1576 23.056ZM53.2616 20.944H54.8576V32.092H53.2616V20.944ZM45.8216 29.836L45.6296 28.552C47.5856 28.552 50.3096 28.528 52.6496 28.18L52.7696 29.332C50.3576 29.812 47.7416 29.836 45.8216 29.836ZM65.3514 23.44H67.4634V24.724H65.3514V23.44ZM67.0434 20.956H68.6394V27.028H67.0434V20.956ZM61.2594 27.484H62.8434V28.492H67.0554V27.484H68.6394V31.948H61.2594V27.484ZM62.8434 29.728V30.676H67.0554V29.728H62.8434ZM61.9074 21.808H63.2034V22.516C63.2034 24.604 62.2194 26.536 60.0834 27.244L59.2794 25.972C61.1154 25.372 61.9074 23.92 61.9074 22.516V21.808ZM62.2434 21.808H63.5274V22.516C63.5274 23.812 64.2834 25.192 66.0354 25.78L65.2554 27.016C63.1914 26.332 62.2434 24.496 62.2434 22.516V21.808ZM59.7114 21.46H65.6874V22.732H59.7114V21.46ZM74.5664 21.28H75.9704V21.796C75.9704 23.932 74.2904 25.744 71.3744 26.176L70.7504 24.892C73.3064 24.556 74.5664 23.104 74.5664 21.796V21.28ZM74.8664 21.28H76.2584V21.796C76.2584 23.092 77.5304 24.556 80.0744 24.892L79.4624 26.176C76.5464 25.744 74.8664 23.932 74.8664 21.796V21.28ZM74.5784 28H76.1624V32.068H74.5784V28ZM70.3904 26.992H80.4344V28.288H70.3904V26.992Z" fill="white"/>
<path d="M110.8 20.4848C105.895 11.1819 112.641 0 123.158 0H179.477C189.495 0 198.689 5.54631 203.361 14.4077C207.516 22.2884 207.516 31.7116 203.361 39.5923C198.689 48.4537 189.495 54 179.477 54H123.158C112.641 54 105.895 42.8181 110.8 33.5152C112.95 29.4377 112.95 24.5623 110.8 20.4848Z" fill="#F0F0F0"/>
<path d="M141.247 20.9559H142.843V29.1399H141.247V20.9559ZM137.791 21.7839H139.483C139.483 24.7959 137.575 26.9919 134.347 27.9879L133.687 26.7279C136.267 25.9119 137.791 24.3879 137.791 22.5279V21.7839ZM134.275 21.7839H138.787V23.0679H134.275V21.7839ZM138.871 23.0799H141.475V24.3639H138.871V23.0799ZM138.763 25.5879H141.391V26.8599H138.763V25.5879ZM135.559 30.6039H143.119V31.8759H135.559V30.6039ZM135.559 28.3479H137.167V31.4199H135.559V28.3479ZM147.15 22.0599H148.446V22.7679C148.446 24.8559 147.462 26.7879 145.326 27.4839L144.522 26.2239C146.358 25.6239 147.15 24.1599 147.15 22.7679V22.0599ZM147.486 22.0599H148.77V22.7679C148.77 24.0639 149.526 25.4319 151.278 26.0199L150.498 27.2679C148.434 26.5839 147.486 24.7359 147.486 22.7679V22.0599ZM150.63 23.6079H152.742V24.9039H150.63V23.6079ZM144.954 21.5679H150.93V22.8279H144.954V21.5679ZM146.31 28.0719H153.882V32.0679H152.286V29.3439H146.31V28.0719ZM152.286 20.9559H153.882V27.5679H152.286V20.9559ZM160.775 21.5559H162.083V22.5399C162.083 24.7479 161.123 26.6919 159.011 27.4239L158.159 26.1639C160.019 25.5399 160.775 24.0519 160.775 22.5399V21.5559ZM161.099 21.5559H162.395V22.6959C162.395 24.0279 163.139 25.3239 164.879 25.8639L164.051 27.0999C162.047 26.4279 161.099 24.6999 161.099 22.6959V21.5559ZM165.491 20.9559H167.087V27.5199H165.491V20.9559ZM166.643 23.5239H168.563V24.8439H166.643V23.5239ZM163.463 27.7719C165.767 27.7719 167.219 28.5759 167.219 29.9199C167.219 31.2759 165.767 32.0679 163.463 32.0679C161.147 32.0679 159.695 31.2759 159.695 29.9199C159.695 28.5759 161.147 27.7719 163.463 27.7719ZM163.463 29.0079C162.047 29.0079 161.279 29.3079 161.279 29.9199C161.279 30.5439 162.047 30.8319 163.463 30.8319C164.879 30.8319 165.635 30.5439 165.635 29.9199C165.635 29.3079 164.879 29.0079 163.463 29.0079ZM176.53 20.9559H178.126V27.1839H176.53V20.9559ZM177.682 23.4519H179.602V24.7479H177.682V23.4519ZM169.798 25.5159H170.722C173.134 25.5159 174.334 25.4559 175.666 25.1799L175.822 26.4399C174.466 26.7399 173.194 26.7999 170.722 26.7999H169.798V25.5159ZM169.798 21.6399H174.73V22.9119H171.382V26.2599H169.798V21.6399ZM170.902 27.6639H178.126V31.9479H170.902V27.6639ZM176.566 28.9239H172.474V30.6879H176.566V28.9239Z" fill="#304865"/>
<path d="M210.8 20.4848C205.895 11.1819 212.641 0 223.158 0H279.477C289.495 0 298.689 5.54631 303.361 14.4077C307.516 22.2884 307.516 31.7116 303.361 39.5923C298.689 48.4537 289.495 54 279.477 54H223.158C212.641 54 205.895 42.8181 210.8 33.5152C212.95 29.4377 212.95 24.5623 210.8 20.4848Z" fill="#98ABC2"/>
<path d="M253.645 20.9439H255.241V32.0919H253.645V20.9439ZM251.905 24.9519H253.969V26.2359H251.905V24.9519ZM246.325 28.2039H247.237C249.037 28.2039 250.465 28.1679 252.073 27.8919L252.217 29.1879C250.573 29.4639 249.085 29.5239 247.237 29.5239H246.325V28.2039ZM246.301 21.8919H251.305V26.0679H247.909V28.5999H246.325V24.8079H249.733V23.1639H246.301V21.8919ZM256.992 29.4759H267.048V30.7839H256.992V29.4759ZM257.76 21.9159H266.22V23.1879H257.76V21.9159ZM257.808 26.5119H266.184V27.7959H257.808V26.5119ZM259.272 23.0919H260.868V26.6319H259.272V23.0919ZM263.124 23.0919H264.708V26.6319H263.124V23.0919Z" fill="white"/>
<path d="M33.8003 82.4848C28.8955 73.1819 35.6409 62 46.1576 62H102.477C112.495 62 121.689 67.5463 126.361 76.4077C130.516 84.2884 130.516 93.7116 126.361 101.592C121.689 110.454 112.495 116 102.477 116H46.1576C35.6409 116 28.8955 104.818 33.8003 95.5152C35.95 91.4377 35.95 86.5623 33.8003 82.4848Z" fill="#F0F0F0"/>
<path d="M63.3505 87.332H65.4865V88.604H63.3505V87.332ZM61.6585 85.436H63.3265C63.3265 88.436 61.8625 90.188 58.3105 91.016L57.7345 89.804C60.7825 89.144 61.6585 87.86 61.6585 86.228V85.436ZM58.3465 85.436H62.8105V86.66H58.3465V85.436ZM61.9825 87.284V88.328L58.0105 88.616L57.7945 87.416L61.9825 87.284ZM65.2465 84.956H66.8425V90.56H65.2465V84.956ZM59.4985 90.992H66.8425V94.016H61.0945V95.384H59.5225V92.864H65.2585V92.228H59.4985V90.992ZM59.5225 94.712H67.0705V95.948H59.5225V94.712ZM76.2856 84.944H77.8816V96.092H76.2856V84.944ZM74.5456 88.952H76.6096V90.236H74.5456V88.952ZM68.9656 92.204H69.8776C71.6776 92.204 73.1056 92.168 74.7136 91.892L74.8576 93.188C73.2136 93.464 71.7256 93.524 69.8776 93.524H68.9656V92.204ZM68.9416 85.892H73.9456V90.068H70.5496V92.6H68.9656V88.808H72.3736V87.164H68.9416V85.892ZM90.0434 84.944H91.6394V96.092H90.0434V84.944ZM88.3034 88.952H90.3674V90.236H88.3034V88.952ZM82.7234 92.204H83.6354C85.4354 92.204 86.8634 92.168 88.4714 91.892L88.6154 93.188C86.9714 93.464 85.4834 93.524 83.6354 93.524H82.7234V92.204ZM82.6994 85.892H87.7034V90.068H84.3074V92.6H82.7234V88.808H86.1314V87.164H82.6994V85.892ZM93.3904 93.476H103.446V94.784H93.3904V93.476ZM94.1584 85.916H102.618V87.188H94.1584V85.916ZM94.2064 90.512H102.582V91.796H94.2064V90.512ZM95.6704 87.092H97.2664V90.632H95.6704V87.092ZM99.5224 87.092H101.106V90.632H99.5224V87.092Z" fill="#304865"/>
<path d="M133.8 82.4848C128.895 73.1819 135.641 62 146.158 62H202.477C212.495 62 221.689 67.5463 226.361 76.4077C230.516 84.2884 230.516 93.7116 226.361 101.592C221.689 110.454 212.495 116 202.477 116H146.158C135.641 116 128.895 104.818 133.8 95.5152C135.95 91.4377 135.95 86.5623 133.8 82.4848Z" fill="#98ABC2"/>
<path d="M161.034 76.28C162.726 76.28 163.998 77.336 163.998 78.824C163.998 80.3 162.726 81.356 161.034 81.356C159.342 81.356 158.07 80.3 158.07 78.824C158.07 77.336 159.342 76.28 161.034 76.28ZM161.034 77.576C160.218 77.576 159.606 78.032 159.606 78.824C159.606 79.616 160.218 80.072 161.034 80.072C161.85 80.072 162.45 79.616 162.45 78.824C162.45 78.032 161.85 77.576 161.034 77.576ZM165.534 75.956H167.142V81.512H165.534V75.956ZM159.726 81.968H167.142V85.016H161.31V86.36H159.75V83.864H165.558V83.204H159.726V81.968ZM159.75 85.712H167.418V86.948H159.75V85.712ZM176.645 75.944H178.241V87.092H176.645V75.944ZM174.905 79.952H176.969V81.236H174.905V79.952ZM169.325 83.204H170.237C172.037 83.204 173.465 83.168 175.073 82.892L175.217 84.188C173.573 84.464 172.085 84.524 170.237 84.524H169.325V83.204ZM169.301 76.892H174.305V81.068H170.909V83.6H169.325V79.808H172.733V78.164H169.301V76.892ZM184.108 76.592H185.5V77.396C185.5 79.808 183.784 81.944 180.904 82.508L180.22 81.188C182.728 80.756 184.108 78.992 184.108 77.396V76.592ZM184.432 76.592H185.812V77.396C185.812 79.028 187.18 80.756 189.7 81.188L189.016 82.508C186.136 81.944 184.432 79.844 184.432 77.396V76.592ZM179.992 84.416H190.048V85.712H179.992V84.416ZM192.207 81.68H200.019V82.928H192.207V81.68ZM191.031 84.5H201.087V85.796H191.031V84.5ZM192.207 76.76H199.923V78.044H193.827V82.028H192.207V76.76ZM193.335 79.208H199.671V80.444H193.335V79.208ZM171.473 97.456H173.069V99.136H171.473V97.456ZM172.253 93.4C173.861 93.4 175.025 94.324 175.025 95.668C175.025 96.988 173.861 97.912 172.253 97.912C170.645 97.912 169.481 96.988 169.481 95.668C169.481 94.324 170.645 93.4 172.253 93.4ZM172.253 94.6C171.497 94.6 170.969 94.984 170.969 95.668C170.969 96.34 171.497 96.724 172.253 96.724C173.021 96.724 173.537 96.34 173.537 95.668C173.537 94.984 173.021 94.6 172.253 94.6ZM176.165 92.968H177.761V101.44H176.165V92.968ZM177.197 96.448H179.153V97.756H177.197V96.448ZM170.345 102.592H178.133V103.876H170.345V102.592ZM170.345 100.708H171.953V103.144H170.345V100.708ZM169.085 100L168.905 98.728C170.789 98.728 173.393 98.716 175.577 98.404L175.685 99.544C173.441 99.964 170.921 100 169.085 100ZM182.56 93.532H183.892V94.528C183.892 96.76 182.896 98.716 180.712 99.448L179.884 98.164C181.78 97.552 182.56 96.052 182.56 94.528V93.532ZM182.896 93.532H184.18V94.456C184.18 95.932 184.9 97.3 186.664 97.864L185.836 99.112C183.784 98.404 182.896 96.616 182.896 94.456V93.532ZM187.684 92.956H189.28V99.46H187.684V92.956ZM185.512 99.748C187.864 99.748 189.316 100.552 189.316 101.908C189.316 103.276 187.864 104.068 185.512 104.068C183.16 104.068 181.708 103.276 181.708 101.908C181.708 100.552 183.16 99.748 185.512 99.748ZM185.512 100.984C184.072 100.984 183.304 101.284 183.304 101.908C183.304 102.532 184.072 102.844 185.512 102.844C186.964 102.844 187.732 102.532 187.732 101.908C187.732 101.284 186.964 100.984 185.512 100.984ZM185.656 94.972H187.912V96.268H185.656V94.972Z" fill="white"/>
<path d="M233.8 82.4848C228.895 73.1819 235.641 62 246.158 62H302.477C312.495 62 321.689 67.5463 326.361 76.4077C330.516 84.2884 330.516 93.7116 326.361 101.592C321.689 110.454 312.495 116 302.477 116H246.158C235.641 116 228.895 104.818 233.8 95.5152C235.95 91.4377 235.95 86.5623 233.8 82.4848Z" fill="#F0F0F0"/>
<path d="M259.687 76.976H265.819V78.248H259.687V76.976ZM259.567 84.536L259.399 83.228C261.331 83.228 263.947 83.204 266.143 82.928L266.227 84.092C263.983 84.488 261.463 84.536 259.567 84.536ZM260.635 77.972H262.183V83.576H260.635V77.972ZM263.323 77.972H264.871V83.576H263.323V77.972ZM266.647 75.956H268.255V87.068H266.647V75.956ZM267.895 80.168H269.863V81.476H267.895V80.168ZM270.594 84.5H280.65V85.796H270.594V84.5ZM274.806 78.308H276.222V78.548C276.222 80.768 274.542 82.604 271.518 83.06L270.918 81.776C273.582 81.416 274.806 79.916 274.806 78.548V78.308ZM275.022 78.308H276.426V78.548C276.426 79.916 277.65 81.416 280.314 81.776L279.714 83.06C276.69 82.604 275.022 80.768 275.022 78.548V78.308ZM271.446 77.48H279.786V78.764H271.446V77.48ZM274.818 76.124H276.414V78.008H274.818V76.124ZM284.339 81.644H294.395V82.904H284.339V81.644ZM288.695 82.316H290.303V84.656H288.695V82.316ZM285.503 85.604H293.291V86.876H285.503V85.604ZM285.503 83.816H287.087V86.144H285.503V83.816ZM285.623 76.304H287.195V77.444H291.527V76.304H293.111V80.876H285.623V76.304ZM287.195 78.644V79.628H291.527V78.644H287.195ZM303.034 75.944H304.63V87.092H303.034V75.944ZM295.978 83.204H296.962C298.93 83.204 300.502 83.132 302.266 82.832L302.422 84.116C300.622 84.44 298.99 84.5 296.962 84.5H295.978V83.204ZM295.966 76.892H301.21V81.188H297.598V83.684H295.978V79.928H299.578V78.164H295.966V76.892ZM274.473 97.456H276.069V99.136H274.473V97.456ZM275.253 93.4C276.861 93.4 278.025 94.324 278.025 95.668C278.025 96.988 276.861 97.912 275.253 97.912C273.645 97.912 272.481 96.988 272.481 95.668C272.481 94.324 273.645 93.4 275.253 93.4ZM275.253 94.6C274.497 94.6 273.969 94.984 273.969 95.668C273.969 96.34 274.497 96.724 275.253 96.724C276.021 96.724 276.537 96.34 276.537 95.668C276.537 94.984 276.021 94.6 275.253 94.6ZM279.165 92.968H280.761V101.44H279.165V92.968ZM280.197 96.448H282.153V97.756H280.197V96.448ZM273.345 102.592H281.133V103.876H273.345V102.592ZM273.345 100.708H274.953V103.144H273.345V100.708ZM272.085 100L271.905 98.728C273.789 98.728 276.393 98.716 278.577 98.404L278.685 99.544C276.441 99.964 273.921 100 272.085 100ZM285.56 93.532H286.892V94.528C286.892 96.76 285.896 98.716 283.712 99.448L282.884 98.164C284.78 97.552 285.56 96.052 285.56 94.528V93.532ZM285.896 93.532H287.18V94.456C287.18 95.932 287.9 97.3 289.664 97.864L288.836 99.112C286.784 98.404 285.896 96.616 285.896 94.456V93.532ZM290.684 92.956H292.28V99.46H290.684V92.956ZM288.512 99.748C290.864 99.748 292.316 100.552 292.316 101.908C292.316 103.276 290.864 104.068 288.512 104.068C286.16 104.068 284.708 103.276 284.708 101.908C284.708 100.552 286.16 99.748 288.512 99.748ZM288.512 100.984C287.072 100.984 286.304 101.284 286.304 101.908C286.304 102.532 287.072 102.844 288.512 102.844C289.964 102.844 290.732 102.532 290.732 101.908C290.732 101.284 289.964 100.984 288.512 100.984ZM288.656 94.972H290.912V96.268H288.656V94.972Z" fill="#304865"/>
</svg>
